<svg width="400" height="230" viewBox="0 0 400 230" xmlns="http://www.w3.org/2000/svg" lang="en" xml:lang="en"><rect x="2" y="2" stroke-width="4" rx="6" width="396" height="226" stroke="rgba(56,139,253,0.4)" fill="#0d1117"/><g font-weight="600" font-size="110pt" font-family="Verdana,Geneva,DejaVu Sans,sans-serif" text-rendering="geometricPrecision"><g transform="translate(0, 21)" fill="#c9d1d9"><g transform="translate(15, 0)"><g transform="scale(0.095)"><text x="0" y="132" textLength="3652" lengthAdjust="spacingAndGlyphs">Language Distribution in Public Repositories</text></g></g><g transform="translate(215, 21)"><circle cx="81" cy="81" r="81" fill="#ffffff"/></g><g transform="translate(216, 22)"><path fill-rule="evenodd" fill="#b07219" d="M 0.0,80.00000000000001 A 80 80 0 0 1 153.8781581668406 49.30769239898562 L 80,80 Z"/><path fill-rule="evenodd" fill="#e34c26" d="M 153.8781581668406,49.30769239898562 A 80 80 0 0 1 145.83642869509316 125.44848354649378 L 80,80 Z"/><path fill-rule="evenodd" fill="#f1e05a" d="M 145.83642869509316,125.44848354649378 A 80 80 0 0 1 89.97112247499851 159.37617222182348 L 80,80 Z"/><path fill-rule="evenodd" fill="#3572A5" d="M 89.97112247499851,159.37617222182348 A 80 80 0 0 1 44.07353203313661 151.47929000365028 L 80,80 Z"/><path fill-rule="evenodd" fill="#000080" d="M 44.07353203313661,151.47929000365028 A 80 80 0 0 1 17.621936239555424 130.0896911699195 L 80,80 Z"/><path fill-rule="evenodd" fill="#663399" d="M 17.621936239555424,130.0896911699195 A 80 80 0 0 1 2.790226445973957 100.94399359568322 L 80,80 Z"/><path fill-rule="evenodd" fill="#555555" d="M 2.790226445973957,100.94399359568322 A 80 80 0 0 1 0.0 80.00000000000003 L 80,80 Z"/></g><g transform="translate(15, 21)"><rect x="0.5" y="0.5" rx="2" width="15" height="15" fill="#b07219" stroke-width="1" stroke="#ffffff"/><text transform="scale(0.095)" x="263" y="132" textLength="1038" lengthAdjust="spacingAndGlyphs">Java 43.73%</text></g><g transform="translate(15, 42)"><rect x="0.5" y="0.5" rx="2" width="15" height="15" fill="#e34c26" stroke-width="1" stroke="#ffffff"/><text transform="scale(0.095)" x="263" y="132" textLength="1142" lengthAdjust="spacingAndGlyphs">HTML 15.88%</text></g><g transform="translate(15, 63)"><rect x="0.5" y="0.5" rx="2" width="15" height="15" fill="#f1e05a" stroke-width="1" stroke="#ffffff"/><text transform="scale(0.095)" x="263" y="132" textLength="1516" lengthAdjust="spacingAndGlyphs">JavaScript 13.39%</text></g><g transform="translate(15, 84)"><rect x="0.5" y="0.5" rx="2" width="15" height="15" fill="#3572A5" stroke-width="1" stroke="#ffffff"/><text transform="scale(0.095)" x="263" y="132" textLength="1149" lengthAdjust="spacingAndGlyphs">Python 9.40%</text></g><g transform="translate(15, 105)"><rect x="0.5" y="0.5" rx="2" width="15" height="15" fill="#000080" stroke-width="1" stroke="#ffffff"/><text transform="scale(0.095)" x="263" y="132" textLength="874" lengthAdjust="spacingAndGlyphs">Lua 6.82%</text></g><g transform="translate(15, 126)"><rect x="0.5" y="0.5" rx="2" width="15" height="15" fill="#663399" stroke-width="1" stroke="#ffffff"/><text transform="scale(0.095)" x="263" y="132" textLength="903" lengthAdjust="spacingAndGlyphs">CSS 6.55%</text></g><g transform="translate(15, 147)"><rect x="0.5" y="0.5" rx="2" width="15" height="15" fill="#555555" stroke-width="1" stroke="#ffffff"/><text transform="scale(0.095)" x="263" y="132" textLength="693" lengthAdjust="spacingAndGlyphs">C 4.22%</text></g></g></g></svg>